<mxfile host="app.diagrams.net" modified="2023-08-15T00:41:43.242Z" agent="Mozilla/5.0 (Windows NT 10.0; Win64; x64) AppleWebKit/537.36 (KHTML, like Gecko) Chrome/115.0.0.0 Safari/537.36" version="21.6.8" etag="3NkCY8VEEb2V7SkeDJKS" type="github">
  <diagram name="페이지-1" id="f0ir8w2nrktKFJeY04kn">
    <mxGraphModel>
      <root>
        <mxCell id="0" />
        <mxCell id="1" parent="0" />
      </root>
    </mxGraphModel>
  </diagram>
</mxfile>
